<svg width="33" height="48" fill="none" xmlns="http://www.w3.org/2000/svg"><path fill-rule="evenodd" clip-rule="evenodd" d="M31.374 0c-3.117 0-7.724 14.008-9.33 28h4.94v17c0 1.862 1.571 3 3.002 3h.002a3.003 3.003 0 003.004-3c.004-10.074.018-40.508-.002-43.298C32.983.714 32.269 0 31.373 0zm-.383 2.666L30.99 45c0 .552-.45 1-1.003 1-.314 0-1-.252-1-1V26.004h-4.673c1.602-11.778 4.799-20.696 6.678-23.338zM14.09 0h-1.776l1.351 12.004L10.98 12l-.006-12H8.972l.002 12H6.966L6.97 0H4.968l-.01 12H2.373L3.568.004 1.748 0S.526 10.076.022 15.15c-.176 1.778.783 3.524 2.182 4.644 1.888 1.512 2.769 1.964 2.769 3.346V45c0 1.656 1.333 3 2.997 3a3.004 3.004 0 003.01-3V23.15c0-1.404.868-1.836 2.767-3.338 1.428-1.128 2.443-2.908 2.245-4.712C15.44 10.01 14.089 0 14.089 0zm-.235 14c.153 1.316.541 2.75-1.349 4.244-1.902 1.506-3.527 2.432-3.527 4.906V45c0 .552-.453 1-1.01 1a.992.992 0 01-.994-1V23.14c0-2.444-1.64-3.398-3.518-4.906-1.824-1.46-1.44-2.95-1.305-4.234h11.704z" fill="#fff"/></svg>