<svg width="152" height="23" fill="none" xmlns="http://www.w3.org/2000/svg"><path fill-rule="evenodd" clip-rule="evenodd" d="M12 0l3.668 7.568L24 8.719l-6.064 5.828 1.48 8.279L12 18.859l-7.417 3.967 1.481-8.279L0 8.719l8.332-1.151L12 0zm32 0l3.668 7.568L56 8.719l-6.064 5.828 1.48 8.279L44 18.859l-7.417 3.967 1.481-8.279L32 8.719l8.332-1.151L44 0zm32 0l3.668 7.568L88 8.719l-6.064 5.828 1.48 8.279L76 18.859l-7.417 3.967 1.481-8.279L64 8.719l8.332-1.151L76 0zm32 0l3.668 7.568L120 8.719l-6.064 5.828 1.48 8.279L108 18.859l-7.417 3.967 1.481-8.279L96 8.719l8.332-1.151L108 0zm28.332 7.568L140 0l3.668 7.569L152 8.719l-6.064 5.827 1.48 8.279L140 18.859l-7.416 3.967 1.48-8.279L128 8.719l8.332-1.151zm6.003 1.835L140 4.586l-2.335 4.817-5.305.733 3.861 3.71-.942 5.27L140 16.591l4.721 2.524-.942-5.27 3.861-3.71-5.305-.732z" fill="#BBA285"/></svg>